<?xml version="1.0" encoding="UTF-8" standalone="no"?>
<svg
   xmlns:dc="http://purl.org/dc/elements/1.1/"
   xmlns:cc="http://creativecommons.org/ns#"
   xmlns:rdf="http://www.w3.org/1999/02/22-rdf-syntax-ns#"
   xmlns:svg="http://www.w3.org/2000/svg"
   xmlns="http://www.w3.org/2000/svg"
   id="svg107"
   version="1.1"
   viewBox="0 0 69.351891 28.65324"
   height="28.65324mm"
   width="69.351891mm">
  <defs
     id="defs101" />
  <metadata
     id="metadata104">
    <rdf:RDF>
      <cc:Work
         rdf:about="">
        <dc:format>image/svg+xml</dc:format>
        <dc:type
           rdf:resource="http://purl.org/dc/dcmitype/StillImage" />
        <dc:title></dc:title>
      </cc:Work>
    </rdf:RDF>
  </metadata>
  <g
     transform="translate(-580.78203,-341.87452)"
     id="layer1">
    <path
       style="opacity:1;vector-effect:none;fill:#31315e;fill-opacity:1;fill-rule:evenodd;stroke:none;stroke-width:0.0177343;stroke-linecap:butt;stroke-linejoin:miter;stroke-miterlimit:4;stroke-dasharray:none;stroke-dashoffset:0;stroke-opacity:1;paint-order:stroke fill markers"
       d="m 625.44944,352.16244 c -0.47171,-0.0755 -0.87963,-0.32903 -1.13342,-0.70454 -0.44254,-0.6548 -0.36265,-1.51343 0.19304,-2.07471 0.11771,-0.1189 0.27939,-0.24971 0.7303,-0.59088 1.1274,-0.85302 1.77727,-1.49004 2.35636,-2.30977 0.31141,-0.44083 0.65394,-1.0629 0.8263,-1.50066 0.0208,-0.0529 0.0399,-0.0942 0.0424,-0.0917 0.009,0.009 0.0558,0.48228 0.0695,0.69901 0.0276,0.43684 0.0141,1.14992 -0.0308,1.62519 -0.10436,1.10498 -0.40796,2.27583 -0.84404,3.25516 -0.17106,0.38414 -0.40143,0.79817 -0.57137,1.02687 -0.25753,0.34656 -0.57509,0.55073 -1.00969,0.64914 -0.10318,0.0234 -0.51832,0.0345 -0.62858,0.0169 z"
       id="path1512" />
    <text
       x="613.02759"
       y="365.957"
       font-size="10.583px"
       letter-spacing="0px"
       word-spacing="0px"
       style="font-size:14.7115px;line-height:1.25;font-family:sans-serif;letter-spacing:0px;word-spacing:0px;fill:#a65fff;fill-opacity:1;stroke-width:0.367795"
       xml:space="preserve"
       id="text34-9-6"><tspan
         x="613.02759"
         y="365.957"
         font-weight="bold"
         letter-spacing=".26458px"
         id="tspan32-8-7"
         style="font-weight:bold;font-family:Roboto;letter-spacing:0.367795px;fill:#a65fff;fill-opacity:1;stroke-width:0.367795">PERU</tspan></text>
    <g
       transform="matrix(0.05872942,0,0,0.05872942,597.88374,337.18968)"
       id="g44-3-2"
       style="fill:#31315e;fill-opacity:1;stroke:none;stroke-width:2.367">
      <g
         transform="matrix(1.466,0,0,1.466,-113.21,79.762)"
         id="g42-0-9"
         style="fill:#31315e;fill-opacity:1">
        <path
           d="m 162.13,136.54 h 0.009 c 9.114,0 17.69,-3.558 24.132,-9.993 6.451,-6.451 10.001,-15.019 10.001,-24.141 0,-5.879 -1.621,-11.469 -4.403,-16.478 15.147,-9.626 38.033,-9.097 38.281,-9.122 2.466,0.154 4.548,-0.811 6.195,-2.415 1.655,-1.604 2.594,-3.814 2.594,-6.118 0,-4.702 3.831,-8.533 8.533,-8.533 4.702,0 8.533,3.831 8.533,8.533 0,4.71 3.823,8.533 8.533,8.533 4.71,0 8.533,-3.823 8.533,-8.533 V 59.74 c 0,-4.702 3.831,-8.533 8.533,-8.533 4.702,0 8.533,3.831 8.533,8.533 v 8.533 c 0,4.71 3.823,8.533 8.533,8.533 4.71,0 8.533,-3.823 8.533,-8.533 0,-4.702 3.831,-8.533 8.533,-8.533 4.702,0 8.533,3.831 8.533,8.533 0,2.313 0.939,4.523 2.594,6.127 1.664,1.604 3.9,2.577 6.204,2.406 7.057,-0.179 25.66,1.229 38.281,9.165 -2.79,4.992 -4.412,10.564 -4.412,16.435 0,9.131 3.576,17.715 10.069,24.158 6.477,6.434 15.087,9.975 24.243,9.975 9.156,0 17.766,-3.541 24.243,-9.975 13.833,-13.747 36.105,-68.335 9.148,-121.86 -1.775,-3.524 -5.734,-5.367 -9.591,-4.463 -3.849,0.913 -6.562,4.352 -6.562,8.303 0,37.845 -20.036,52.983 -33.297,63.002 -0.785,0.597 -1.451,1.118 -2.176,1.681 C 368.89,63.158 350.168,60.563 339.937,59.924 336.472,49.897 326.932,42.678 315.736,42.678 c -4.565,0 -8.849,1.203 -12.561,3.302 -4.548,-7.117 -12.527,-11.836 -21.572,-11.836 -9.045,0 -17.024,4.719 -21.572,11.836 -3.712,-2.099 -7.996,-3.302 -12.561,-3.302 -11.187,0 -20.736,7.219 -24.201,17.246 -10.214,0.64 -28.902,3.243 -43.008,13.286 -0.717,-0.546 -1.357,-1.058 -2.116,-1.638 C 164.98,61.545 145.072,46.407 145.072,8.545 c 0,-3.959 -2.722,-7.398 -6.571,-8.303 -3.9,-0.93 -7.825,0.947 -9.591,4.489 -26.769,53.53 -4.642,108.08 9.088,121.81 6.451,6.442 15.019,10.001 24.132,10.001 z M 389.04,90.357 c 1.382,-1.374 3.721,-3.14 6.443,-5.197 9.694,-7.33 25.182,-19.029 33.792,-40.926 4.693,34.884 -9.805,64.247 -15.804,70.221 -6.519,6.468 -17.929,6.468 -24.439,-0.009 -3.234,-3.217 -5.026,-7.492 -5.026,-12.041 0,-4.549 1.791,-8.822 5.034,-12.048 z M 134.34,44.448 c 8.559,21.743 23.876,33.391 33.476,40.704 2.697,2.048 5.018,3.814 6.391,5.188 3.226,3.226 5.001,7.509 5.001,12.066 0,4.557 -1.775,8.841 -5.001,12.066 -6.451,6.451 -17.698,6.443 -24.132,0 -5.956,-5.956 -20.309,-35.217 -15.735,-70.024 z"
           id="path36-4-1"
           style="fill:#31315e;fill-opacity:1" />
        <path
           d="m 349.87,315.74 h -8.533 c -4.71,0 -8.533,3.823 -8.533,8.533 0,4.71 3.823,8.533 8.533,8.533 h 8.533 c 4.71,0 8.533,-3.823 8.533,-8.533 0,-4.71 -3.822,-8.533 -8.533,-8.533 z"
           id="path38-4-2"
           style="fill:#31315e;fill-opacity:1" />
        <path
           d="m 221.87,315.74 h -8.533 c -4.71,0 -8.533,3.823 -8.533,8.533 0,4.71 3.823,8.533 8.533,8.533 h 8.533 c 4.71,0 8.533,-3.823 8.533,-8.533 0,-4.71 -3.822,-8.533 -8.533,-8.533 z"
           id="path40-4-7"
           style="fill:#31315e;fill-opacity:1" />
      </g>
    </g>
    <text
       id="text34-9-6-0"
       xml:space="preserve"
       style="font-size:14.7115px;line-height:1.25;font-family:sans-serif;letter-spacing:0px;word-spacing:0px;fill:#c77cff;fill-opacity:1;stroke-width:0.367795"
       word-spacing="0px"
       letter-spacing="0px"
       font-size="10.583px"
       y="365.9292"
       x="580.73175"><tspan
         style="font-weight:bold;font-family:Roboto;letter-spacing:0.367795px;fill:#c77cff;fill-opacity:1;stroke-width:0.367795"
         id="tspan32-8-7-9"
         letter-spacing=".26458px"
         font-weight="bold"
         y="365.9292"
         x="580.73175">APIs</tspan></text>
    <path
       style="opacity:1;vector-effect:none;fill:#31315e;fill-opacity:1;fill-rule:evenodd;stroke:none;stroke-width:0.0261107;stroke-linecap:butt;stroke-linejoin:miter;stroke-miterlimit:4;stroke-dasharray:none;stroke-dashoffset:0;stroke-opacity:1;paint-order:stroke fill markers"
       d="m 605.13986,352.33804 c -0.20776,-0.0328 -0.33621,-0.0763 -0.53871,-0.18243 -0.38828,-0.20349 -0.64021,-0.51582 -1.00187,-1.24208 -0.59431,-1.19342 -0.95601,-2.59221 -1.06155,-4.1052 -0.0364,-0.522 0.005,-1.81788 0.0637,-1.9743 0.0113,-0.0304 0.0208,-0.0192 0.0494,0.0579 0.0608,0.16395 0.2899,0.63394 0.42894,0.87977 0.38683,0.68395 0.79343,1.21137 1.41487,1.83529 0.43111,0.43284 0.77318,0.72548 1.47849,1.26485 0.80894,0.61862 1.0074,0.85821 1.14284,1.37969 0.0592,0.22801 0.0544,0.57943 -0.0113,0.83141 -0.14652,0.56141 -0.56132,1.00742 -1.10226,1.18518 -0.29627,0.0974 -0.55544,0.11837 -0.86247,0.0699 z"
       id="path1510" />
  </g>
</svg>
